<?xml version="1.0" encoding="UTF-8"?><svg width="30" height="30" version="1.1" viewBox="0 0 30 30" xmlns="http://www.w3.org/2000/svg" xmlns:xlink="http://www.w3.org/1999/xlink"><!--Generated by IJSVG (https://github.com/iconjar/IJSVG)--><path d="M23.5,19.941c-1.026,0 -1.623,0.491 -2.086,0.96l-8.67,-12.977c-0.519,-0.776 -1.31,-1.304 -2.227,-1.487c-0.752,-0.152 -1.513,-0.053 -2.191,0.274l-1.688,-2.525l0.415,-0.277c0.23,-0.153 0.292,-0.464 0.138,-0.693c-0.152,-0.231 -0.462,-0.292 -0.692,-0.139l-0.924,0.617l-0.828,-2.309c-0.052,-0.145 -0.167,-0.258 -0.313,-0.306c-0.146,-0.047 -0.307,-0.027 -0.435,0.059l-2.494,1.666c-0.128,0.086 -0.211,0.226 -0.221,0.379c-0.011,0.153 0.049,0.303 0.163,0.407l1.817,1.648l-0.923,0.617c-0.23,0.153 -0.292,0.464 -0.138,0.693c0.096,0.145 0.254,0.223 0.416,0.223c0.095,0 0.192,-0.027 0.277,-0.084l0.417,-0.278l1.686,2.523c-1.273,1.144 -1.547,3.084 -0.569,4.547l4.366,6.535c-0.189,-0.043 -0.391,-0.073 -0.62,-0.073c-1.173,0 -1.787,0.641 -2.28,1.156c-0.454,0.475 -0.812,0.849 -1.558,0.849c-0.746,0 -1.104,-0.374 -1.558,-0.849c-0.493,-0.514 -1.107,-1.156 -2.28,-1.156c-0.276,0 -0.5,0.224 -0.5,0.5c0,0.276 0.224,0.5 0.5,0.5c0.746,0 1.104,0.374 1.558,0.849c0.493,0.514 1.107,1.156 2.28,1.156c1.173,0 1.787,-0.641 2.28,-1.156c0.454,-0.475 0.812,-0.849 1.558,-0.849c0.744,0 1.102,0.374 1.555,0.848c0.492,0.515 1.105,1.157 2.277,1.157c1.171,0 1.784,-0.641 2.276,-1.157c0.452,-0.474 0.81,-0.848 1.554,-0.848c0.744,0 1.101,0.374 1.554,0.848c0.492,0.515 1.105,1.157 2.276,1.157c1.172,0 1.786,-0.642 2.279,-1.157c0.452,-0.474 0.81,-0.848 1.554,-0.848c0.276,0 0.5,-0.224 0.5,-0.5c0,-0.276 -0.225,-0.5 -0.501,-0.5Zm-20.906,-16.661l1.43,-0.954l0.695,1.94l-0.599,0.399l-1.526,-1.385Zm13.245,16.661c-1.172,0 -1.785,0.641 -2.277,1.157c-0.09,0.094 -0.176,0.18 -0.262,0.264l-2.771,-4.148c1.568,-1.091 2.504,-2.019 2.9,-2.863l4.184,6.262c-0.421,-0.362 -0.962,-0.672 -1.774,-0.672Zm-4.147,-5.487c-0.147,-0.232 -0.455,-0.304 -0.689,-0.156c-0.45,0.282 -0.965,0.293 -1.028,0.284c-0.015,-0.023 -0.016,-0.161 0.113,-0.387c0.169,-0.297 0.482,-0.61 0.857,-0.861c0.81,-0.542 1.457,-0.513 1.534,-0.404c0.156,0.218 0.208,0.431 0.164,0.672c-0.106,0.577 -0.732,1.311 -1.861,2.188l-0.188,-0.282c0.329,-0.064 0.66,-0.188 0.941,-0.365c0.233,-0.146 0.304,-0.455 0.157,-0.689Zm8.01,7.487l-6.401,-9.578c-0.001,-0.001 -0.002,-0.002 -0.003,-0.003c-0.003,-0.004 -0.004,-0.008 -0.007,-0.012c-0.5,-0.7 -1.721,-0.635 -2.903,0.154c-0.508,0.34 -0.923,0.764 -1.17,1.197c-0.308,0.541 -0.335,1.051 -0.076,1.438c0.001,0.002 0.003,0.003 0.004,0.005l0.826,1.238c-0.135,0.094 -0.266,0.187 -0.412,0.284c-0.11,0.074 -0.186,0.188 -0.212,0.318c-0.026,0.13 0.001,0.266 0.075,0.375l3.027,4.53c-0.134,0.035 -0.277,0.059 -0.444,0.059c-0.369,0 -0.643,-0.093 -0.88,-0.243l-5.865,-8.78c-0.766,-1.146 -0.456,-2.701 0.69,-3.467c0.23,-0.153 0.292,-0.464 0.138,-0.693l-1.626,-2.437l0.037,0.034c0.081,0.074 0.182,0.11 0.284,0.12c0.01,0.001 0.018,0.005 0.028,0.005c0.008,0 0.015,0.004 0.023,0.004c0.088,0 0.174,-0.029 0.252,-0.076c0.009,-0.005 0.02,-0.002 0.029,-0.008l0.834,-0.554c0.191,-0.128 0.271,-0.369 0.193,-0.585l-0.021,-0.057l1.632,2.442c0.073,0.11 0.188,0.188 0.318,0.213c0.131,0.027 0.264,-0.001 0.373,-0.074c0.555,-0.371 1.222,-0.502 1.877,-0.374c0.655,0.131 1.22,0.508 1.591,1.063l8.767,13.121c-0.262,0.2 -0.558,0.334 -0.978,0.341Z" transform="scale(1.25)" fill="#000"></path></svg>