<?xml version="1.0" encoding="UTF-8"?><svg width="16" height="16" version="1.1" viewBox="0 0 16 16" xmlns="http://www.w3.org/2000/svg" xmlns:xlink="http://www.w3.org/1999/xlink"><!--Generated by IJSVG (https://github.com/iconjar/IJSVG)--><g transform="scale(0.666667)"><path fill="#000" d="M12,0.5c-6.341,0 -11.5,5.159 -11.5,11.5c0,6.341 5.159,11.5 11.5,11.5c6.341,0 11.5,-5.159 11.5,-11.5c0,-6.341 -5.159,-11.5 -11.5,-11.5Zm0,22c-5.79,0 -10.5,-4.71 -10.5,-10.5c0,-5.79 4.71,-10.5 10.5,-10.5c5.79,0 10.5,4.71 10.5,10.5c0,5.79 -4.71,10.5 -10.5,10.5Z"></path><path fill="#000" d="M12.5,6.5h-1c-1.654,0 -3,1.346 -3,3v5c0,1.654 1.346,3 3,3h1c1.654,0 3,-1.346 3,-3v-0.5c0,-0.276 -0.224,-0.5 -0.5,-0.5c-0.276,0 -0.5,0.224 -0.5,0.5v0.5c0,1.103 -0.897,2 -2,2h-1c-1.103,0 -2,-0.897 -2,-2v-5c0,-1.103 0.897,-2 2,-2h1c1.103,0 2,0.897 2,2v0.5c0,0.276 0.224,0.5 0.5,0.5c0.276,0 0.5,-0.224 0.5,-0.5v-0.5c0,-1.654 -1.346,-3 -3,-3Z"></path></g></svg>