<?xml version="1.0" encoding="UTF-8"?><svg width="50" height="50" version="1.1" viewBox="0 0 50 50" xmlns="http://www.w3.org/2000/svg" xmlns:xlink="http://www.w3.org/1999/xlink"><!--Generated by IJSVG (https://github.com/iconjar/IJSVG)--><g transform="scale(2.08333)"><path fill="#000" d="M14.5,23.862c-0.113,0 -0.223,-0.038 -0.313,-0.11c-0.118,-0.095 -0.187,-0.238 -0.187,-0.39v-3.72c0,-0.899 -0.115,-1.537 -0.363,-2.005c-0.073,-0.137 -0.077,-0.3 -0.013,-0.441c0.064,-0.141 0.191,-0.244 0.342,-0.279c2.964,-0.684 5.034,-2.853 5.034,-5.275c0,-1.2 -0.493,-2.345 -1.425,-3.312c-0.144,-0.149 -0.181,-0.37 -0.094,-0.558c0.372,-0.802 0.293,-1.894 -0.148,-2.549c-0.583,0.228 -1.34,0.705 -1.832,1.289c-0.134,0.161 -0.355,0.22 -0.554,0.147c-1.875,-0.688 -4.018,-0.688 -5.893,0c-0.197,0.072 -0.419,0.014 -0.554,-0.146c-0.492,-0.584 -1.249,-1.061 -1.833,-1.289c-0.441,0.655 -0.52,1.747 -0.148,2.549c0.087,0.187 0.05,0.408 -0.094,0.557c-0.932,0.967 -1.425,2.113 -1.425,3.312c0,2.307 1.863,4.385 4.636,5.17c0.216,0.062 0.364,0.258 0.364,0.482v0.349c0,0.626 -0.251,0.979 -0.462,1.166c-0.452,0.397 -1.036,0.337 -1.1,0.33c-0.003,0 -0.007,0 -0.01,0c-0.824,0 -1.444,-0.459 -2.043,-0.903c-0.301,-0.223 -0.606,-0.45 -0.961,-0.638c0.077,0.104 0.153,0.211 0.23,0.318c0.75,1.043 1.599,2.226 2.847,2.226h1c0.276,0 0.5,0.224 0.5,0.5v2.72c0,0.152 -0.069,0.295 -0.187,0.39c-0.119,0.094 -0.273,0.129 -0.421,0.098c-5.443,-1.208 -9.393,-6.131 -9.393,-11.708c0,-6.617 5.383,-12 12,-12c6.617,0 12,5.383 12,12c0,5.576 -3.95,10.5 -9.392,11.708c-0.036,0.008 -0.072,0.012 -0.108,0.012Zm0.258,-6.121c0.164,0.517 0.242,1.137 0.242,1.901v3.078c4.671,-1.326 8,-5.677 8,-10.578c0,-6.065 -4.935,-11 -11,-11c-6.065,0 -11,4.935 -11,11c0,4.901 3.329,9.252 8,10.578v-1.578h-0.5c-1.76,0 -2.813,-1.465 -3.659,-2.643c-0.479,-0.667 -0.975,-1.357 -1.341,-1.357c-0.276,0 -0.5,-0.224 -0.5,-0.5c0,-0.276 0.224,-0.5 0.5,-0.5c1.74,0 2.705,0.715 3.48,1.29c0.536,0.397 0.958,0.71 1.52,0.71c0.056,0.003 0.263,0.018 0.379,-0.086c0.095,-0.086 0.119,-0.257 0.121,-0.392c-3.006,-0.987 -5,-3.368 -5,-6.021c0,-1.364 0.512,-2.66 1.484,-3.766c-0.429,-1.243 -0.164,-2.761 0.662,-3.588c0.125,-0.126 0.307,-0.177 0.481,-0.13c0.668,0.177 1.66,0.696 2.401,1.451c1.905,-0.621 4.036,-0.621 5.941,0c0.741,-0.755 1.733,-1.274 2.401,-1.451c0.173,-0.047 0.355,0.003 0.481,0.13c0.827,0.827 1.091,2.345 0.662,3.587c0.975,1.107 1.487,2.403 1.487,3.766c0,2.728 -2.127,5.17 -5.242,6.099Z"></path></g></svg>