<?xml version="1.0" encoding="UTF-8"?><svg width="50" height="50" version="1.1" viewBox="0 0 50 50" xmlns="http://www.w3.org/2000/svg" xmlns:xlink="http://www.w3.org/1999/xlink"><!--Generated by IJSVG (https://github.com/iconjar/IJSVG)--><g transform="scale(1.66667)"><path fill="#000" d="M25.8,30h-21.5c-2.4,0 -4.3,-1.9 -4.3,-4.2v-21.5c0,-2.4 1.9,-4.3 4.3,-4.3h21.5c2.3,0 4.2,1.9 4.2,4.3v21.5c0,2.3 -1.9,4.2 -4.2,4.2Zm-21.5,-29c-1.8,0 -3.3,1.5 -3.3,3.3v21.5c0,1.7 1.5,3.2 3.3,3.2h21.5c1.8,0 3.3,-1.5 3.3,-3.3v-21.4c-0.1,-1.8 -1.6,-3.3 -3.3,-3.3h-21.5Z"></path><path fill="#000" d="M10.5,10h-10c-0.3,0 -0.5,-0.2 -0.5,-0.5c0,-0.3 0.2,-0.5 0.5,-0.5h10c0.3,0 0.5,0.2 0.5,0.5c0,0.3 -0.2,0.5 -0.5,0.5Z"></path><path fill="#000" d="M29,10h-9.5c-0.3,0 -0.5,-0.2 -0.5,-0.5c0,-0.3 0.2,-0.5 0.5,-0.5h9.5c0.3,0 0.5,0.2 0.5,0.5c0,0.3 -0.2,0.5 -0.5,0.5Z"></path><path fill="#000" d="M25.5,7h-4c-0.3,0 -0.5,-0.2 -0.5,-0.5v-4c0,-0.3 0.2,-0.5 0.5,-0.5h4c0.3,0 0.5,0.2 0.5,0.5v4c0,0.3 -0.2,0.5 -0.5,0.5Zm-3.5,-1h3v-3h-3v3Z"></path><path fill="#000" d="M2.5,6c-0.3,0 -0.5,-0.2 -0.5,-0.5v-4.5c0,-0.3 0.2,-0.5 0.5,-0.5c0.3,0 0.5,0.2 0.5,0.5v4.5c0,0.3 -0.2,0.5 -0.5,0.5Z"></path><path fill="#000" d="M4.5,6c-0.3,0 -0.5,-0.2 -0.5,-0.5v-5c0,-0.3 0.2,-0.5 0.5,-0.5c0.3,0 0.5,0.2 0.5,0.5v5c0,0.3 -0.2,0.5 -0.5,0.5Z"></path><path fill="#000" d="M6.5,6c-0.3,0 -0.5,-0.2 -0.5,-0.5v-5c0,-0.3 0.2,-0.5 0.5,-0.5c0.3,0 0.5,0.2 0.5,0.5v5c0,0.3 -0.2,0.5 -0.5,0.5Z"></path><path fill="#000" d="M15,19c-2.2,0 -4,-1.8 -4,-4c0,-2.2 1.8,-4 4,-4c2.2,0 4,1.8 4,4c0,2.2 -1.8,4 -4,4Zm0,-7c-1.7,0 -3,1.3 -3,3c0,1.7 1.3,3 3,3c1.7,0 3,-1.3 3,-3c0,-1.7 -1.3,-3 -3,-3Z"></path><path fill="#000" d="M15,22.5c-4.1,0 -7.5,-3.4 -7.5,-7.5c0,-4.1 3.4,-7.5 7.5,-7.5c4.1,0 7.5,3.4 7.5,7.5c0,4.1 -3.4,7.5 -7.5,7.5Zm0,-14c-3.6,0 -6.5,2.9 -6.5,6.5c0,3.6 2.9,6.5 6.5,6.5c3.6,0 6.5,-2.9 6.5,-6.5c0,-3.6 -2.9,-6.5 -6.5,-6.5Z"></path></g></svg>