<?xml version="1.0" encoding="UTF-8"?><svg width="50" height="50" version="1.1" viewBox="-850 596.458 50 50" xmlns="http://www.w3.org/2000/svg" xmlns:xlink="http://www.w3.org/1999/xlink"><!--Generated by IJSVG (https://github.com/iconjar/IJSVG)--><path d="M-385.1,286.4c-0.1,-0.1 -0.2,-0.2 -0.4,-0.2h-21c-0.1,0 -0.3,0.1 -0.4,0.2c-0.1,0.1 -0.1,0.2 -0.1,0.4l2,20c0,0.2 0.2,0.4 0.3,0.4l9,3c0.1,0 0.1,0 0.2,0c0.1,0 0.1,0 0.2,0l8,-3c0.2,-0.1 0.3,-0.2 0.3,-0.4l2,-20c0,-0.1 0,-0.3 -0.1,-0.4Zm-11.1,18.3c-0.1,0.1 -0.2,0.1 -0.3,0.1c0,0 -0.1,0 -0.1,0l-3.5,-1c-0.2,-0.1 -0.3,-0.2 -0.4,-0.4l-0.5,-2.5c-0.1,-0.3 0.1,-0.5 0.4,-0.6c0.3,-0.1 0.5,0.1 0.6,0.4l0.4,2.2l2.6,0.7v-11.3h-5.5c-0.3,0 -0.5,-0.2 -0.5,-0.5c0,-0.3 0.2,-0.5 0.5,-0.5h6c0.3,0 0.5,0.2 0.5,0.5v12.5v0c0,0.1 -0.1,0.3 -0.2,0.4Zm7.2,-12.8l-0.5,2c-0.1,0.3 -0.3,0.4 -0.6,0.4c-0.3,-0.1 -0.4,-0.3 -0.4,-0.6l0.3,-1.4h-3.9v5h3.5c0.1,0 0.3,0.1 0.4,0.2c0.1,0.1 0.1,0.3 0.1,0.4l-1,5.5c0,0.2 -0.2,0.3 -0.3,0.4l-3,1c-0.1,0 -0.1,0 -0.2,0c-0.2,0 -0.4,-0.1 -0.5,-0.3c-0.1,-0.3 0.1,-0.5 0.3,-0.6l2.7,-0.9l0.8,-4.6h-3.4c-0.3,0 -0.5,-0.2 -0.5,-0.5v-6c0,-0.3 0.2,-0.5 0.5,-0.5h5c0.2,0 0.3,0.1 0.4,0.2c0.3,1.7053e-13 0.3,0.2 0.3,0.3Z" transform="scale(2.08333)" fill="#000"></path></svg>