<?xml version="1.0" encoding="UTF-8"?><svg width="100" height="100" version="1.1" viewBox="0 0 100 100" xmlns="http://www.w3.org/2000/svg" xmlns:xlink="http://www.w3.org/1999/xlink"><!--Generated by IJSVG (https://github.com/iconjar/IJSVG)--><path d="M16.5,15h4.425l-0.871,6.097l-3.674,0.918c-0.268,0.067 -0.431,0.338 -0.364,0.606c0.056,0.228 0.26,0.379 0.484,0.379c0.04,0 0.081,-0.005 0.121,-0.016l4,-1c0.197,-0.049 0.345,-0.213 0.374,-0.414l1,-7c0.021,-0.143 -0.022,-0.289 -0.117,-0.398c-0.095,-0.109 -0.233,-0.172 -0.378,-0.172h-4.5v-7h5.41l-0.403,2.418c-0.046,0.272 0.139,0.53 0.411,0.575c0.271,0.046 0.53,-0.139 0.575,-0.411l0.5,-3c0.024,-0.145 -0.017,-0.293 -0.112,-0.405c-0.094,-0.113 -0.234,-0.177 -0.381,-0.177h-6.5c-0.276,0 -0.5,0.224 -0.5,0.5v8c0,0.276 0.224,0.5 0.5,0.5Zm12.374,-14.832c-0.095,-0.107 -0.231,-0.168 -0.374,-0.168h-27c-0.143,0 -0.279,0.061 -0.374,0.168c-0.095,0.107 -0.14,0.249 -0.123,0.391l3,25.5c0.023,0.195 0.159,0.359 0.347,0.418l11.143,3.5c0.049,0.015 0.1,0.023 0.15,0.023c0.057,0 0.113,-0.01 0.168,-0.028l9.857,-3.5c0.179,-0.064 0.307,-0.224 0.329,-0.413l3,-25.5c0.017,-0.142 -0.028,-0.285 -0.123,-0.391Zm-3.835,25.465l-9.406,3.34l-10.674,-3.353l-2.897,-24.62h25.875l-2.898,24.633Zm-18.54,-18.633h7.5v14.828l-4.058,-1.218l-0.449,-2.692c-0.045,-0.272 -0.302,-0.458 -0.575,-0.411c-0.272,0.045 -0.456,0.303 -0.411,0.575l0.5,3c0.032,0.188 0.167,0.342 0.35,0.397l5,1.5c0.047,0.014 0.096,0.021 0.144,0.021c0.106,0 0.211,-0.034 0.297,-0.099c0.127,-0.094 0.202,-0.243 0.202,-0.401v-16c0,-0.276 -0.224,-0.5 -0.5,-0.5h-8c-0.276,0 -0.5,0.224 -0.5,0.5c0,0.276 0.224,0.5 0.5,0.5Z" transform="scale(3.33333)" fill="#000"></path></svg>