<?xml version="1.0" encoding="UTF-8"?><svg width="50" height="50" version="1.1" viewBox="0 0 50 50" xmlns="http://www.w3.org/2000/svg" xmlns:xlink="http://www.w3.org/1999/xlink"><!--Generated by IJSVG (https://github.com/iconjar/IJSVG)--><g transform="scale(1.66667)"><path fill="#000" d="M7,30h-6c-0.3,0 -0.5,-0.2 -0.5,-0.5v-19c0,-0.3 0.2,-0.5 0.5,-0.5h6c0.3,0 0.5,0.2 0.5,0.5v19c0,0.3 -0.2,0.5 -0.5,0.5Zm-5.5,-1h5v-18h-5v18Z"></path><path fill="#000" d="M29,30h-6c-0.3,0 -0.5,-0.2 -0.5,-0.5v-11.5c0,-1.4 -0.5,-2.4 -1.4,-2.8c-1,-0.4 -2.4,0 -3.6,1v13.3c0,0.3 -0.2,0.5 -0.5,0.5h-6c-0.3,0 -0.5,-0.2 -0.5,-0.5v-19c0,-0.3 0.2,-0.5 0.5,-0.5h6c0.3,0 0.5,0.2 0.5,0.5v0.4c1.9,-1.4 5.5,-2.5 8.2,-1.5c1.7,0.6 3.8,2.4 3.8,7.1v13c0,0.3 -0.2,0.5 -0.5,0.5Zm-5.5,-1h5v-12.5c0,-3.3 -1.1,-5.4 -3.2,-6.1c-2.8,-1.1 -6.8,0.7 -8,2c-0.1,0.2 -0.4,0.2 -0.6,0.1c-0.2,-0.1 -0.3,-0.3 -0.3,-0.5v-1h-5v18h5v-13c0,-0.1 0.1,-0.3 0.1,-0.4c1.4,-1.4 3.3,-2 4.8,-1.4c1.3,0.5 2.1,1.9 2.1,3.7v11.1Z"></path><path fill="#000" d="M4,7c-1.9,0 -3.5,-1.6 -3.5,-3.5c0,-1.9 1.6,-3.5 3.5,-3.5c1.9,0 3.5,1.6 3.5,3.5c0,1.9 -1.6,3.5 -3.5,3.5Zm0,-6c-1.4,0 -2.5,1.1 -2.5,2.5c0,1.4 1.1,2.5 2.5,2.5c1.4,0 2.5,-1.1 2.5,-2.5c0,-1.4 -1.1,-2.5 -2.5,-2.5Z"></path></g></svg>