<?xml version="1.0" encoding="UTF-8"?><svg width="100" height="100" version="1.1" viewBox="0 0 100 100" xmlns="http://www.w3.org/2000/svg" xmlns:xlink="http://www.w3.org/1999/xlink"><!--Generated by IJSVG (https://github.com/iconjar/IJSVG)--><g transform="scale(0.195312)"><path fill="#000" d="M255.917,480l-1.60466e-06,-2.16215e-09c-5.85722,-0.00789242 -11.6037,-1.59678 -16.633,-4.599l-52.985,-32.44c-7.914,-4.562 -4.023,-6.203 -1.443,-7.141c10.565,-3.781 13.713,-5.657 24.947,-12.285c1.206,-0.667 2.747,-0.424 3.955,0.322l39.71,23.504c1.476,0.85 3.557,0.85 4.931,0l155.188,-92.246c1.475,-0.877 2.415,-2.646 2.415,-4.441v-186.805c0,-1.85 -0.94,-3.592 -2.449,-4.528l-155.12,-94.672c-1.478,-0.894 -3.421,-0.894 -4.898,0l-155.019,94.705c-1.544,0.903 -2.516,2.698 -2.516,4.495v186.805c0,1.813 0.972,3.513 2.481,4.389l39.929,23.972c23.61,12.204 37.59,-0.17 37.59,-14.611v-183.699c0,-2.652 2.047,-4.727 4.596,-4.727h22.809c2.515,0 4.597,2.072 4.597,4.727v183.698c0,32.563 -19.353,51.248 -49.199,51.248c-9.156,0 -16.397,0 -36.552,-10.279l-41.584,-24.781c-10.296,-6.152 -16.667,-17.646 -16.667,-29.955v-189.465c0,-12.316 6.371,-23.784 16.665,-29.917l158.685,-94.864c10.027,-5.88 23.374,-5.88 33.332,0l158.65,94.864c10.298,6.149 16.668,17.625 16.668,29.917v189.465c0,12.309 -6.37,23.75 -16.668,29.953l-158.65,94.774l-3.01648e-07,1.80122e-07c-5.04793,3.01426 -10.8186,4.60363 -16.698,4.599l-0.067,0.018Z"></path><path fill="#000" d="M304.943,351.998c-64.61,0 -84.006,-31.61 -84.006,-59.271c0,-2.629 2.048,-4.729 4.562,-4.729h20.521c2.282,0 4.227,1.7 4.562,4.016c3.084,21.602 16.748,31.15 54.324,31.15c33.399,0 47.091,-10.346 47.091,-28.684c0,-10.592 -3.463,-18.424 -55.407,-23.697c-43.427,-4.441 -70.288,-14.373 -70.288,-50.295c0,-33.135 26.996,-52.49 72.234,-52.49c46.128,0 76.462,14 79.173,50.829c0.102,1.337 -0.368,2.629 -1.241,3.644c-0.871,0.965 -2.078,1.527 -3.353,1.527h-20.591c-2.146,0 -4.024,-1.562 -4.459,-3.713c-4.401,-16.953 -16.97,-23.402 -49.563,-23.402c-36.486,0 -40.746,12.753 -40.746,22.607c0,11.963 5.031,15.441 54.294,22.172c48.761,6.663 71.933,16.117 71.933,51.552c0,35.781 -28.808,58.783 -79.075,58.783l0.035,0.001Z"></path></g></svg>