<?xml version="1.0" encoding="UTF-8"?><svg width="50" height="50" version="1.1" viewBox="0 0 50 50" xmlns="http://www.w3.org/2000/svg" xmlns:xlink="http://www.w3.org/1999/xlink"><!--Generated by IJSVG (https://github.com/iconjar/IJSVG)--><g transform="scale(1.66667)"><path fill="#000" d="M15,27.5c-0.1,0 -0.3,-0.1 -0.4,-0.2l-4.3,-4.5c-0.6,-0.6 -0.9,-1.3 -0.9,-2.1c0,-1.6 1.1,-2.9 2.5,-3.2c0.8,-0.1 1.5,0.1 2.2,0.7c0.3,0.2 0.5,0.5 0.7,0.8c0.2,-0.3 0.4,-0.6 0.7,-0.8c0.7,-0.6 1.6,-0.8 2.4,-0.7c1.4,0.2 2.5,1.6 2.5,3.1c0,0.9 -0.3,1.6 -0.9,2.2l-4.3,4.5c0.1,0.1 -0.1,0.2 -0.2,0.2Zm-2.6,-9c-0.1,0 -0.2,0 -0.2,0c-0.9,0.2 -1.7,1.1 -1.7,2.1c0,0.6 0.2,1.1 0.6,1.5l3.9,4.1l3.9,-4.1c0.4,-0.4 0.6,-0.9 0.6,-1.4c0,-1.1 -0.7,-2 -1.7,-2.2c-0.6,-0.1 -1.2,0.1 -1.6,0.4c-0.4,0.4 -0.7,0.9 -0.7,1.5c0,0.1 0,0.1 0,0.1c0,0.1 0,0.2 0,0.4c0,0.3 -0.2,0.5 -0.5,0.5c-0.3,0 -0.5,-0.2 -0.5,-0.5c0,-0.7 -0.4,-1.5 -1,-2c-0.2,-0.2 -0.6,-0.4 -1.1,-0.4Z"></path><path fill="#000" d="M26.5,22.5h-4.5c-0.3,0 -0.5,-0.2 -0.5,-0.5c0,-0.3 0.2,-0.5 0.5,-0.5h4.5c1.1,0 2,-0.9 2,-2v-14c0,-1.1 -0.9,-2 -2,-2h-23c-1.1,0 -2,0.9 -2,2v14c0,1.1 0.9,2 2,2h4.5c0.3,0 0.5,0.2 0.5,0.5c0,0.3 -0.2,0.5 -0.5,0.5h-4.5c-1.7,0 -3,-1.3 -3,-3v-14c0,-1.7 1.3,-3 3,-3h23c1.7,0 3,1.3 3,3v14c0,1.7 -1.3,3 -3,3Z"></path><path fill="#000" d="M14.7,13.5c-0.7,0 -1.5,-0.2 -2,-0.6l-9.5,-7c-0.2,-0.2 -0.3,-0.5 -0.1,-0.7c0.2,-0.2 0.5,-0.3 0.7,-0.1l9.5,7c0.7,0.5 2.2,0.5 2.9,0l9.5,-7c0.2,-0.2 0.5,-0.1 0.7,0.1c0.2,0.2 0.1,0.5 -0.1,0.7l-9.5,7c-0.6,0.4 -1.3,0.6 -2.1,0.6Z"></path><path fill="#000" d="M4,19.5c-0.1,0 -0.3,0 -0.4,-0.1c-0.2,-0.2 -0.2,-0.5 0,-0.7l6,-6c0.2,-0.2 0.5,-0.2 0.7,0c0.2,0.2 0.2,0.5 0,0.7l-6,6c8.88178e-16,0.1 -0.2,0.1 -0.3,0.1Z"></path><path fill="#000" d="M26,19.5c-0.1,0 -0.3,0 -0.4,-0.1l-6,-6c-0.2,-0.2 -0.2,-0.5 0,-0.7c0.2,-0.2 0.5,-0.2 0.7,0l6,6c0.2,0.2 0.2,0.5 0,0.7c0,0.1 -0.2,0.1 -0.3,0.1Z"></path></g></svg>