<?xml version="1.0" encoding="UTF-8"?><svg width="100" height="100" version="1.1" viewBox="0 0 100 100" xmlns="http://www.w3.org/2000/svg" xmlns:xlink="http://www.w3.org/1999/xlink"><!--Generated by IJSVG (https://github.com/iconjar/IJSVG)--><path d="M28.5,26.5h-2.5v-4.5c0,-0.276 -0.224,-0.5 -0.5,-0.5c-0.276,0 -0.5,0.224 -0.5,0.5v5c0,0.276 0.224,0.5 0.5,0.5h3c0.276,0 0.5,-0.224 0.5,-0.5c0,-0.276 -0.224,-0.5 -0.5,-0.5Zm-22.835,-4.971c-0.196,-0.068 -0.423,-0.007 -0.556,0.159l-1.609,2.012l-1.609,-2.013c-0.133,-0.165 -0.359,-0.229 -0.556,-0.159c-0.201,0.071 -0.335,0.26 -0.335,0.472v5c0,0.276 0.224,0.5 0.5,0.5c0.276,0 0.5,-0.224 0.5,-0.5v-3.575l1.11,1.387c0.189,0.237 0.592,0.237 0.781,0l1.109,-1.387v3.575c0,0.276 0.224,0.5 0.5,0.5c0.276,0 0.5,-0.224 0.5,-0.499v-5c0,-0.213 -0.134,-0.402 -0.335,-0.472Zm5.092,2.043c-0.234,-0.142 -0.543,-0.066 -0.686,0.171l-1.071,1.784l-1.071,-1.785c-0.142,-0.237 -0.451,-0.312 -0.686,-0.171c-0.237,0.142 -0.315,0.449 -0.172,0.686l1.346,2.243l-1.346,2.243c-0.142,0.237 -0.065,0.544 0.172,0.686c0.08,0.048 0.169,0.071 0.257,0.071c0.169,0 0.335,-0.086 0.429,-0.242l3,-5c0.142,-0.237 0.065,-0.544 -0.172,-0.686Zm12.243,-7.833v-11.739c0,-2.273 -4.38,-3.5 -8.5,-3.5c-4.12,0 -8.5,1.227 -8.5,3.5v11.739c0,2.469 4.276,3.761 8.5,3.761c4.224,0 8.5,-1.292 8.5,-3.761Zm-8.5,-14.239c4.293,0 7.5,1.32 7.5,2.5c0,1.18 -3.207,2.5 -7.5,2.5c-4.293,0 -7.5,-1.32 -7.5,-2.5c0,-1.18 3.207,-2.5 7.5,-2.5Zm-7.5,4.206c1.527,1.172 4.575,1.794 7.5,1.794c2.925,0 5.973,-0.622 7.5,-1.794v2.294c0,1.18 -3.207,2.5 -7.5,2.5c-4.293,0 -7.5,-1.32 -7.5,-2.5v-2.294Zm0,4c1.527,1.172 4.575,1.794 7.5,1.794c2.925,0 5.973,-0.622 7.5,-1.794v2.294c0,1.18 -3.207,2.5 -7.5,2.5c-4.293,0 -7.5,-1.32 -7.5,-2.5v-2.294Zm0,6.033v-2.033c1.527,1.172 4.575,1.794 7.5,1.794c2.925,0 5.973,-0.622 7.5,-1.794v2.033c0,1.334 -3.014,2.761 -7.5,2.761c-4.486,0 -7.5,-1.428 -7.5,-2.761Zm8.586,8.268c-0.003,0 -0.104,-0.017 -0.107,-0.017c-1.222,-0.187 -1.479,-0.507 -1.479,-0.741c0,-0.347 0.656,-0.75 1.502,-0.75c0.841,0 1.466,0.38 1.501,0.721c0.027,0.275 0.278,0.466 0.548,0.447c0.274,-0.027 0.474,-0.273 0.446,-0.548c-0.094,-0.923 -1.166,-1.619 -2.495,-1.619c-1.403,0 -2.502,0.769 -2.502,1.75c0,1.373 1.752,1.641 2.417,1.743c0.003,0 0.104,0.017 0.107,0.017c1.22,0.187 1.476,0.506 1.476,0.74c0,0.347 -0.656,0.75 -1.502,0.75c-0.841,0 -1.466,-0.38 -1.501,-0.721c-0.027,-0.276 -0.277,-0.469 -0.548,-0.447c-0.274,0.027 -0.474,0.273 -0.446,0.548c0.094,0.924 1.166,1.62 2.495,1.62c1.403,0 2.502,-0.769 2.502,-1.75c0,-1.372 -1.749,-1.64 -2.414,-1.743Zm8.19,2.563c0.138,-0.246 0.224,-0.522 0.224,-0.82v-2.5c0,-0.965 -0.822,-1.75 -1.833,-1.75h-1.334c-1.011,0 -1.833,0.785 -1.833,1.75v2.5c0,0.965 0.822,1.75 1.833,1.75h1.334c0.326,0 0.628,-0.088 0.894,-0.231l0.335,0.335c0.098,0.097 0.226,0.146 0.354,0.146c0.128,0 0.256,-0.049 0.353,-0.146c0.195,-0.195 0.195,-0.512 0,-0.707l-0.327,-0.327Zm-0.776,-0.82c0,0.013 -0.007,0.023 -0.008,0.036l-0.139,-0.139c-0.195,-0.195 -0.512,-0.195 -0.707,0c-0.195,0.195 -0.195,0.512 0,0.707l0.127,0.127c-0.036,0.004 -0.068,0.019 -0.106,0.019h-1.334c-0.459,0 -0.833,-0.336 -0.833,-0.75v-2.5c0,-0.414 0.374,-0.75 0.833,-0.75h1.334c0.459,0 0.833,0.336 0.833,0.75v2.5Z" transform="scale(3.33333)" fill="#000"></path></svg>