<?xml version="1.0" encoding="UTF-8"?><svg version="1.1" viewBox="0 0 30 30" xmlns="http://www.w3.org/2000/svg" xmlns:xlink="http://www.w3.org/1999/xlink"><!--Generated by IJSVG (https://github.com/iconjar/IJSVG)--><g fill="#000"><path d="M25.5,26c-0.129,0 -0.255,-0.05 -0.351,-0.144l-5.941,-5.856h-12.708c-1.378,0 -2.5,-1.121 -2.5,-2.5v-15c0,-1.379 1.122,-2.5 2.5,-2.5h21c1.378,0 2.5,1.121 2.5,2.5v15c0,1.379 -1.122,2.5 -2.5,2.5h-1.5v5.5c0,0.201 -0.121,0.384 -0.307,0.461c-0.062,0.026 -0.128,0.039 -0.193,0.039Zm-19,-25c-0.827,0 -1.5,0.673 -1.5,1.5v15c0,0.827 0.673,1.5 1.5,1.5h12.913c0.131,0 0.257,0.052 0.351,0.144l5.236,5.161v-4.805c0,-0.276 0.224,-0.5 0.5,-0.5h2c0.827,0 1.5,-0.673 1.5,-1.5v-15c0,-0.827 -0.673,-1.5 -1.5,-1.5h-21Z"></path><path d="M4.5,30c-0.065,0 -0.131,-0.013 -0.193,-0.039c-0.186,-0.077 -0.307,-0.26 -0.307,-0.461v-5.5h-1.5c-1.378,0 -2.5,-1.121 -2.5,-2.5v-15c0,-1.379 1.122,-2.5 2.5,-2.5c0.276,0 0.5,0.224 0.5,0.5c0,0.276 -0.224,0.5 -0.5,0.5c-0.827,0 -1.5,0.673 -1.5,1.5v15c0,0.827 0.673,1.5 1.5,1.5h2c0.276,0 0.5,0.224 0.5,0.5v4.805l5.236,-5.161c0.094,-0.092 0.22,-0.144 0.351,-0.144h8.913c0.276,0 0.5,0.224 0.5,0.5c0,0.276 -0.224,0.5 -0.5,0.5h-8.708l-5.941,5.856c-0.096,0.094 -0.222,0.144 -0.351,0.144Z"></path></g></svg>